<?xml version="1.0" standalone="no"?>
<!DOCTYPE svg PUBLIC "-//W3C//DTD SVG 20010904//EN"
 "http://www.w3.org/TR/2001/REC-SVG-20010904/DTD/svg10.dtd">
<svg version="1.0" xmlns="http://www.w3.org/2000/svg"
 width="1080.000000pt" height="1080.000000pt" viewBox="0 0 1080.000000 1080.000000"
 preserveAspectRatio="xMidYMid meet">

<g transform="translate(0.000000,1080.000000) scale(0.100000,-0.100000)"
fill="#000000" stroke="none">
<path d="M4014 8758 c-1640 -1642 -1632 -1633 -1847 -1960 -447 -677 -670
-1420 -671 -2233 0 -532 87 -996 281 -1500 52 -135 232 -495 310 -620 319
-512 704 -910 1198 -1239 197 -132 301 -191 498 -286 483 -232 1011 -364 1554
-389 861 -40 1689 184 2398 647 241 157 415 297 651 524 113 110 294 308 281
308 -3 0 -53 -36 -112 -80 -169 -126 -333 -226 -560 -341 -438 -221 -834 -342
-1340 -410 -220 -29 -599 -36 -825 -15 -782 73 -1472 335 -2075 786 -777 582
-1216 1305 -1341 2210 -25 177 -25 616 -1 790 71 510 238 956 508 1358 166
247 219 304 1438 1523 l1176 1176 1176 -1181 c1211 -1217 1240 -1247 1369
-1454 357 -576 434 -1303 205 -1937 -308 -855 -1083 -1432 -1994 -1485 -233
-13 -446 7 -673 64 -389 98 -731 288 -1007 558 -225 221 -355 467 -407 775
-22 127 -15 370 14 498 55 242 152 431 315 615 41 47 282 292 536 545 l461
460 461 -460 c445 -445 592 -601 656 -695 83 -123 166 -330 198 -491 49 -251
17 -575 -79 -792 l-24 -55 59 34 c340 192 582 506 668 867 89 374 19 753 -197
1077 -63 94 -484 530 -1291 1335 l-451 450 -801 -800 c-440 -440 -837 -843
-883 -895 -343 -394 -533 -872 -552 -1395 -27 -708 260 -1352 811 -1825 482
-413 1039 -662 1671 -747 159 -21 609 -24 754 -5 608 81 1144 307 1600 673
137 111 386 359 486 484 319 402 546 898 638 1395 39 213 50 338 50 580 -1
229 -9 336 -45 540 -94 545 -356 1098 -712 1505 -71 80 -3007 3025 -3017 3025
-3 0 -685 -681 -1516 -1512z"/>
<path d="M5347 5011 c-158 -160 -181 -188 -214 -257 -32 -67 -38 -90 -41 -166
-5 -93 6 -153 41 -223 83 -169 229 -253 425 -243 79 4 99 9 166 41 168 84 253
232 244 426 -4 79 -9 98 -43 168 -34 68 -60 100 -213 256 -97 97 -178 177
-182 177 -4 0 -86 -81 -183 -179z"/>
</g>
</svg>
