<?xml version="1.0" encoding="utf-8"?>
<!-- Generator: Adobe Illustrator 24.1.0, SVG Export Plug-In . SVG Version: 6.00 Build 0)  -->
<svg version="1.1" id="Layer_1" xmlns="http://www.w3.org/2000/svg" xmlns:xlink="http://www.w3.org/1999/xlink" x="0px" y="0px"
	 viewBox="0 0 1414 1259" style="enable-background:new 0 0 1414 1259;" xml:space="preserve">
<style type="text/css">
	.st0{fill-rule:evenodd;clip-rule:evenodd;fill:#FFFFFF;}
</style>
<g>
	<path class="st0" d="M1268,886.9c-12.2,0-24.5,0-36.7,0c-1,0-2.3,0-3.3-0.3c-2-0.3-3.3-1.7-4.3-3.3c-0.7-1-1-2-1.3-3
		c-1.3-5.3-3-10.6-4.3-15.5c-5-18.5-10.2-37.4-15.2-55.9c-3.6-13.9-7.6-27.4-11.2-41.3c-0.3-0.7-0.3-1.7-0.7-2.3
		c-0.3-1-1-2.3-1.7-3.3c-1-1.3-2.6-2.3-4.6-2.6c-0.7,0-1,0-1.7,0s-1.3,0-2.3,0c-44.3,0-88.6,0-132.9,0c-1,0-2,0-3,0
		c-2.6,0-4.3,1.3-5.6,3.3c-0.7,1-1,2.3-1.3,3.6c-0.3,1.7-1,3.3-1.3,5c-7.9,28.8-15.9,57.5-23.8,86.3c-2,6.9-4,14.2-6,21.2
		c0,0.7-0.3,1-0.3,1.7c-0.3,0.7-0.7,1.7-1,2.3c-1.3,2.6-3.3,3.6-6,4c-0.7,0-1,0-1.7,0c-24.8,0-49.3,0-74.1,0c-0.7,0-1,0-1.7,0
		s-1.3-0.3-2-0.3c-1.7-0.7-2.3-2-2.3-3.6c0-0.7,0.3-1,0.3-1.7c1.3-5,2.6-10.3,4.3-15.2c5.6-20.5,11.2-41.3,16.9-61.8
		c5.6-19.8,10.9-40,16.5-59.8c6-21.2,11.6-42.3,17.5-63.5c5-18.2,9.9-36.4,15.2-54.6c5.6-20.5,11.2-41.3,16.9-61.8
		c5.6-20.5,11.2-41.3,16.9-61.8c5-17.5,9.6-35,14.5-52.9c1.3-4.3,2.6-8.6,5-12.6c2-4,4.6-7.9,7.9-11.2c3.6-3.6,7.9-6.3,12.9-8.3
		c3.6-1.3,7.3-2.3,11.2-3.3c5.6-1.3,11.2-2,16.9-2.6c8.3-0.7,16.5-1,24.8-1c3.3,0,6.6,0,9.9,0c4,0,8.3,0.3,12.2,0.7
		c3.3,0.3,6.3,0.7,9.6,1c6.3,1,12.6,2.3,18.8,4.3c7.3,2.3,12.9,6.6,17.5,12.6c2.6,3.6,4.6,7.6,6.6,11.6c1.3,3.3,2.3,6.6,3.3,9.9
		c9.6,35,19.2,70.1,28.8,105.1c7.6,28.4,15.5,56.9,23.1,85c6.9,26.1,14.2,51.9,21.2,78c6.3,22.5,12.2,45,18.5,67.5
		c6.6,23.8,12.9,47.6,19.5,71.4c2,7.6,4,14.9,6,22.5c0,0.3,0.3,1,0.3,1.3c0,0.7,0,1.3,0,2c-0.3,1-0.7,1.7-1.7,2
		c-0.7,0.3-1.3,0.3-2,0.3s-1.3,0-2.3,0C1292.8,886.9,1280.2,886.9,1268,886.9z M1114.6,668.6c13.9,0,27.4,0,41.3,0c0.7,0,1.3,0,2,0
		s1.3,0,2-0.3c1.7-0.3,2.6-1.7,3-3.3c0-0.7,0-1,0-1.7c-0.3-1.3-0.7-3-1-4.3c-0.7-3-1.7-5.6-2.3-8.6c-5.6-20.8-11.2-41.7-16.9-62.2
		c-5.6-20.8-11.2-41.7-17.2-62.8c-1.7-6-3.3-11.9-5-17.9c-0.7-2-1-3.6-1.7-5.6c-0.3-1-0.7-1.7-1-2.3c-0.7-1.3-2-2.3-3.6-2.3
		c-0.7,0-1.3,0.3-2,0.7c-0.7,0.7-1,1.3-1.3,2c-0.7,1-1,2.3-1.7,3.3c-1,2.3-1.7,4.6-2.3,6.9c-6.3,23.1-12.6,46-18.8,69.1
		c-7.3,26.5-14.2,52.6-21.5,79c-0.3,1.7-0.7,3.3-1,5c0,0.3,0,1,0,1.3c0.3,2,1.3,3.3,3.3,3.6c1,0.3,2,0.3,3,0.3
		C1086.5,668.6,1100.7,668.6,1114.6,668.6z"/>
	<path class="st0" d="M960.2,691.4c-0.3,0-0.7,0-1,0c-0.7,0-1.3,0-2,0c-25.1,0-50.3,0-75.7,0c-1,0-1.7,0-2.6,0c-0.7,0-1,0-1.7,0.3
		c-2,0.3-3.3,2-4,4c-0.3,1-0.3,2-0.3,3s0,2,0,3c0,59.2,0,118,0,177.2c0,1,0,2,0,3s-0.3,1.7-0.7,2.6c-0.7,1.3-1.3,2-2.6,2.6
		c-0.7,0.3-1.3,0.3-2,0.3s-1.3,0-2,0c-25.5,0-50.6,0-76,0c-0.7,0-1.3,0-2,0s-1.3,0-2-0.3c-1.7-0.7-2.6-1.7-3.3-3.3
		c-0.3-1-0.3-1.7-0.3-2.6c0-0.7,0-1.7,0-2.3c0-126,0-252.3,0-378.3c0-4,0-7.9,0.3-11.6c0.7-7.9,2-15.9,4.6-23.5
		c3.3-9.6,7.9-18.2,14.5-25.8c6-6.9,12.9-12.2,20.8-16.9c7.3-4.3,15.2-6.9,23.5-8.9c5-1.3,9.9-2,15.2-2.6c4.6-0.3,9.3-0.7,14.2-0.7
		c27.4,0,54.9,0,82.7,0c30.4,0,60.8,0,91.3,0c1,0,1.7,0,2.6,0c0,0,0,0,0,0.3v0.3c0,0.3-0.3,0.3-0.7,0.3c-4,2.3-7.3,5.3-9.9,8.9
		c-3,3.3-5.3,6.9-7.3,10.9c-3,5.6-5,11.2-6.6,17.5c-0.7,2.3-1,4.6-1.7,6.6c-0.7,2.3-1.3,4.6-1.7,6.6c-3,10.9-6,21.8-8.9,32.7
		c-0.7,2.3-0.7,2-2.6,2c-17.2,0-34.4,0-51.6,0c-19.2,0-38,0-57.2,0c-3.6,0-7.3,0.3-10.9,1.3c-2,0.7-4,1.3-6,2.3
		c-3,1.7-5.3,3.6-6.9,6.6c-1.7,2.6-3,5.6-4,8.6c-1,3.6-1.7,7.3-2,10.9c-0.3,3.6-0.3,6.9-0.3,10.6c0,19.2,0,38.4,0,57.5c0,1,0,2,0,3
		c0,1,0.3,2,0.3,3c0.7,2.3,2.3,4,4.6,4c1,0,2,0,3,0c16.9,0,33.7,0,50.6,0c16.5,0,33.1,0,49.6,0c1,0,1.7,0,2.6,0
		c0.3,0,0.7,0.3,0.3,0.7c0,0.3-0.3,0.7-0.3,1c-3,10.6-6,21.2-8.9,31.4c-4.6,17.2-9.6,34.1-14.2,51.3
		C960.8,690.5,960.8,691.1,960.2,691.4z"/>
	<path class="st0" d="M149.1,614.1c0-3,0-6.9,0.3-10.9c0-4,0.3-7.9,0.7-11.9c0.3-2.3,0.3-4.6,0.7-6.9c0.3-3.3,0.7-6.6,1.3-9.9
		c0.3-2.6,1-5.3,1.3-7.9c0.3-2.3,1-5,1.7-7.3c0.3-1,0.3-2,0.7-3c1-4.6,2.3-9.3,3.3-13.9c0.7-2.3,1.3-4.3,2-6.6c0.7-2,1.3-4,2-6
		c0.3-1,0.7-2.3,1-3.3c0.7-2.6,1.7-5,2.6-7.3c1.7-4,3.3-7.9,5-11.9c1-2,2-4.3,3-6.3c1.7-4,3.6-7.3,5.6-10.9c2-4,4.3-7.6,6.6-11.2
		c0.7-0.7,1-1.7,1.7-2.3c3.3-5.3,6.9-10.3,10.6-15.5c3-4.3,6.6-8.3,9.6-12.2c3-3.3,6-6.6,8.9-9.9c6.3-6.3,12.9-12.2,19.8-17.9
		c2.3-1.7,4.3-3.3,6.6-5.3c1.3-1,2.6-1.7,3.6-2.6c1.3-1,2.6-2,4-3c3-2,5.6-4,8.9-5.6c2.6-1.7,5.3-3,7.9-4.6c2-1,4-2.3,6-3.3
		c2.6-1.3,5.3-2.6,7.6-4c2-1,4.3-2.3,6.6-3c0,0,0,0,0.3,0c2.6-1.3,5.3-2.3,7.9-3.3l0.3-0.3c2-0.7,4-1.7,6-2c0.3,0,0.3,0,0.7-0.3
		c1.3-0.7,3-1,4.3-1.7c5-1.7,9.9-3,14.9-4.3c2-0.7,4.3-1,6.6-1.3c4.3-1,8.6-1.7,12.6-2.3c0.3,0,0.7,0,1,0c4.6-0.3,9.6-1,14.2-1.3
		c5.6-0.7,11.6-0.7,17.2-0.7c1.7,0,3.3,0,4.6,0c1.7,0,3.3,0,4.6,0.3c1,0,2,0,3,0.3c2.6,0.3,5.6,0.7,8.3,0.7c4,0.3,7.9,1,11.9,1.7
		c5.3,1,10.6,2,15.9,3.3c0,0,0,0,0,0.3l0,0c-0.3,0-0.7,0-1.3,0c-1.3,0-2.6,0-4,0c-2,0-4,0-6,0.3c-0.7,0-1.7,0-2.3,0
		c-2.3,0-4.3,0.3-6.6,0.7c-3,0.3-5.6,0.7-8.6,1c-1,0-1.7,0.3-2.6,0.7c-3,0.7-6,1-8.9,1.7c-3.6,1-7.3,1.7-10.9,2.6
		c-1.3,0.3-3,1-4.3,1.3c-1,0.3-2,0.7-3,1c-2,0.7-4,1.7-6,2.3c-0.7,0-1,0.3-1.7,0.7c-1,0.3-2,1-3,1.3c-0.7,0.3-1.3,0.7-2,0.7
		c-5,2.3-10.2,4.6-15.2,7.3c-2.3,1.3-5,2.6-7.3,4c-2.6,1.7-5.3,3.3-7.9,5c-3,2-5.6,4-8.3,6c-1.7,1.3-3,2.3-4.6,3.3
		c-3,2.3-6,4.6-8.6,7.3c-3.6,3.6-7.6,6.9-11.2,10.6c-2.3,2.3-4.6,4.6-6.6,7.3c-1.3,1.7-2.6,3.3-4,5c-1.7,2.3-3.6,4.3-5.3,6.6
		c-1.3,1.7-2.3,3.3-3.3,5c-3.6,5.6-7.3,11.6-10.9,17.2c-0.3,0.7-0.7,1.3-1,2c-1.7,3.3-3.3,6.6-5,9.9c-0.7,1.7-1.7,3.3-2.3,5
		c-0.7,1.3-1,2.6-1.7,3.6c-1.3,3-2.3,6-3.3,8.9c-0.7,1.7-1,3-1.7,4.6c-0.7,2.6-1.7,5-2.3,7.6c-0.7,2-1.3,4-2,6.3
		c-0.3,1-0.3,2-0.7,2.6c-0.7,3.3-1.7,6.9-2.3,10.2c-0.7,2.6-1,5.3-1.3,7.9c-0.3,1-0.3,2-0.7,3c-0.7,3.3-0.7,6.3-1,9.6
		c-0.3,2.3-0.3,4.6-0.7,7.3c0,1.3-0.3,3-0.3,4.3c0,1.7-0.3,3.6-0.3,5.3c0,1.7,0,3.6,0,5.3c0,3,0,6.3,0,9.3c0,2,0.3,4,0.3,6
		c0.3,5,0.7,10.2,1.3,15.2c0.3,3,1,6,1.7,8.6c0.7,3.6,1.3,6.9,2,10.6c0.3,2.3,1,5,1.7,7.3c0.7,2.3,1.3,5,2.3,7.3
		c0.3,1.3,0.7,2.6,1.3,3.6c0.3,2.3,1.7,4.3,2,6.6v0.3c1.7,3.6,3,7.9,4.6,11.6c1.7,3.3,3,6.6,4.6,9.9c0.7,1.3,1.3,3,2,4.3
		c0.7,1.3,1.3,2.6,2,4c0.3,0.7,1,1.7,1.3,2.3s0.7,1.3,1.3,2c0.3,0.7,0.7,1.3,1,2c0.3,0.7,0.7,1.3,1,2c0.3,0.3,0.3,0.7,0.7,1
		c1.3,2,2.6,4.3,4,6.3c0.3,1,1,1.7,1.7,2.3c2.3,3.6,5,6.9,7.6,10.2c3.6,4.6,7.3,9.3,11.2,13.6c1.7,1.7,3.3,3.3,4.6,5
		c4.3,4.6,9.3,8.9,13.9,13.2c3.6,3.3,7.9,6.3,11.9,9.3c2.3,1.7,4.6,3.3,6.9,5c2,1.3,4,2.6,6,3.6c0.7,0.3,1.3,0.7,2,1
		c5.3,3.3,10.9,6,16.5,8.9c3.3,1.7,6.6,3,9.9,4.3c2.6,1,5,2,7.6,3c4.3,1.7,8.9,3,13.2,4c3,0.7,5.6,1.7,8.6,2.3
		c3.3,0.7,6.9,1.3,10.2,2s6.6,1,9.9,1.3c3,0.3,5.6,0.3,8.6,0.7c5.3,0.3,10.2,0.3,15.5,0.3c2.6,0,5-0.3,7.6-0.7
		c0.7,0,1.7-0.3,2.3-0.3c3.6,0,7.3-0.7,10.9-1.3c1,0,2-0.3,3-0.3c2-0.3,4-0.7,6-1c4.6-1,9.3-2,13.6-3.3c2.3-0.7,4.6-1.3,6.9-2.3
		c1.7-0.7,3.6-1,5.3-1.7c2-1,4.3-1.3,6.3-2.3c1.3-0.7,2.6-1,3.6-1.7c1-0.3,2.3-1,3.3-1.3c1.7-0.7,3-1.7,4.6-2.3c1-0.3,2-1,2.6-1.3
		c1-0.7,2-1.3,3-1.7c1-0.7,2-1,3-1.7c1-0.7,1.7-1,2.6-1.7c1.3-0.7,2.3-1.3,3.3-2c1.7-1,3.3-2,5-3c0.3-0.3,1-0.7,1.3-1
		c0.3-0.3,0.7-0.7,1.3-0.7c1.7-1,3-2,4.6-3c2.3-1.7,4.6-3.6,6.9-5.3c1.7-1.3,3.6-3,5.3-4.3c1-1,2.3-2,3.3-3c1.3-1,2.6-2.3,4-3.6
		c2-2,4-4,6-6c1.7-2,3.3-3.6,5.3-5.6c4.3-4.6,8.3-9.6,11.9-14.5c1-1.7,2.3-3,3.3-4.6c0.7-1,1.7-2.3,2.3-3.3l0.3-0.3
		c0.3,0,0,0.3,0,0.3c-1.7,4-3.3,7.6-5,11.6c-3.6,7.9-7.6,15.9-11.9,23.5c-1.7,3-3.6,6-5.6,9.3c-2.6,4.3-5.6,8.3-8.6,12.6
		c-3.3,4.6-6.9,8.9-10.6,13.2c-3.3,3.6-6.6,6.9-9.9,10.6c-0.3,0.3-0.7,0.7-1.3,1.3c-2.6,3-5.6,5.6-8.6,8.3c-3.6,3-7.3,6.3-11.2,9.6
		c-1.3,1-2.6,2-3.6,3c-2,1.3-4,3-6.3,4.6c-1,0.7-2,1.3-3.3,2c-1.3,1-3,2-4.3,3c-2.3,1.7-5,3-7.3,4.6c-1.7,1-3.3,1.7-4.6,2.6
		c-5,3-9.9,5.3-15.2,7.6c-0.3,0.3-1,0.3-1.3,0.7c-1.3,0.7-2.6,1-3.6,1.7c-1.3,0.7-3,1.3-4.3,1.7c-2,1-4,1.3-6,2.3
		c-0.3,0.3-1,0.3-1.3,0.3c-0.3,0.3-1,0.3-1.3,0.3c-1.7,1-3.3,1.3-5.3,2c-3,1-5.6,1.7-8.6,2.6c-6.3,1.7-12.9,3-19.2,4.6
		c-1,0.3-2.3,0.3-3.6,0.7c-4,0.7-8.3,1.3-12.2,1.7c-3.3,0.3-6.6,0.7-9.9,1c-5.6,0.3-10.9,0.3-16.5,0.3c-4.6,0-8.9-0.3-13.2-0.7
		c-3.3-0.3-6.6-0.7-9.9-1c-4.6-0.7-8.9-1.3-13.6-2.3c-2.3-0.3-4.6-1-6.9-1.3c-4-0.7-7.6-1.7-11.2-2.6c-3.6-1-7.3-2-10.9-3.3
		c-3.6-1-6.9-2.3-10.6-4c-5.3-2-10.6-4.3-15.5-6.9c-2.6-1.3-5.3-2.6-7.9-4.3c-4.6-2.6-9.3-5.3-13.6-7.9c-7.3-4.6-14.5-9.6-21.2-15.2
		c-8.9-6.9-16.9-14.9-24.5-23.1c-4-4-7.3-8.6-10.9-12.9c-2.6-3.6-5.6-7.3-8.3-10.9c-1.3-2-3-4.3-4.3-6.3c-1-1.3-1.7-2.6-2.3-4
		c-1-1.3-1.7-3-2.6-4.3c-1-1.7-2-3-3-4.6c-0.3-0.7-1-1.7-1.3-2.3c-0.3-0.3-0.7-0.7-0.7-1.3c-1-2-2-3.6-3-5.6c-0.3-0.7-0.7-1.3-1-2
		c-1-2.3-2.3-5-3.3-7.3c-1.3-2.3-2.3-4.6-3.3-6.9c-1.3-3-2.6-6-3.6-8.9c-0.3-1-1-2-1.3-3c-0.7-1.7-1-3-1.7-4.3
		c-0.3-0.3-0.3-1-0.3-1.3c-1.3-3.6-2.3-7.3-3.3-10.9c-0.7-2.3-1.3-4.3-2-6.6c-0.3-1.7-0.7-3-1-4.6c-0.7-3.3-1.7-6.6-2.3-9.9
		c-0.7-3-1-5.6-1.7-8.6c-0.3-2.3-1-4.6-1.3-6.9c-0.3-1.7-0.3-3.6-0.7-5.3c-0.7-5.6-1-11.2-1.3-16.9C149.1,621,149.1,618,149.1,614.1
		z"/>
	<path class="st0" d="M472.5,436.2c-1-0.3-2-0.7-2.6-1c-6.9-2.3-14.2-4.3-21.5-5.3c-2.6-0.3-5-0.7-7.6-1c-0.3,0-0.3,0-0.3,0
		c-6.3-0.7-12.6-1-18.8-0.7c0,0-0.3,0-0.3,0.3c0,0,0,0.3,0.3,0.7c0.3,0,0.3,0.3,0.7,0.3c0.7,0.3,1,0.7,1.7,1
		c7.3,4.3,13.6,8.9,19.8,14.5c3.6,3.3,7.3,6.9,10.6,10.3c5.6,6,10.9,12.2,15.9,18.5c3.3,4.3,6.3,8.9,9.3,13.2
		c3.3,5,6.3,10.3,9.3,15.2c1.7,3,3.3,6,5,9.3c0.7,1.3,1.3,3,2,4.3c0.3,1,1,2,1.7,3c1,1.7,1.7,3.6,2.6,5.3c0.3,0.3,0.3,1,0.7,1.7
		c0.3,1,1,2,1.3,3c0.3,0.7,0.7,1.3,0.7,1.7c1.3,2.6,2.3,5.3,3.3,8.3c1.7,3.6,3,7.3,4.3,11.2c0.3,1,0.7,2,1.3,3
		c0.7,1.7,1.3,3.3,1.7,5c0.3,1,0.3,1.7,0.7,2.6c0.7,2,1.3,4,2,6c0.7,2,1.3,4,1.7,5.6c0,0.7,0.3,1,0.3,1.7c0.7,1.7,1,3.3,1.3,5
		c0,0.7,0.3,1.3,0.7,2c0.3,1,0.3,2,0.7,2.6v0.3c0.7,2,1,4.3,1.7,6.3c0.3,2,1,4,1.3,6c0.3,2.3,0.7,4.6,1.3,6.9c0.3,2,0.7,4,1,6.3
		c0.3,1.3,0.3,2.6,0.7,4c0.3,2.6,0.7,5,1,7.6c0.3,4.3,1,8.6,1.3,12.9c0,0.3,0,0.7,0,0.7c0,0.3,0.3,0.3,0.3,0.3c0.3,0,0.3,0,0.7,0
		c2.3,0,4.6,0,6.9-0.3c2.3,0,4.3,0,6.6,0c2,0,4,0.3,6,0.3c2.3,0.3,4.3,0.3,6.6,0.7c4.3,0.3,8.3,1.3,12.6,2c0.7,0,1.3,0.3,2-0.3
		c0.3-0.3,0.7,0,1,0c1.7,0.3,3.3,0.7,5.3,1c1.3,0.3,3,0.7,4.3,1c0.3,0,1,0.3,1.3,0.3s0.3,0.3,0.3,0.7s0,0.7-0.3,1
		c-1.7,5.3-3.6,10.6-5.6,15.9c-1.7,4-3.6,7.9-5.3,11.9c-0.7,1.3-1.3,3-2.3,4.3c-1,2-2.3,4.3-3.6,6.3c-2,3.3-4,6.3-6,9.6
		c-3.6,5.3-7.3,10.2-11.2,15.2c-1.7,2-3.3,3.6-5,5.6c-3.6,3.6-7.3,7.6-11.2,10.9c-1.7,1.7-3.6,3-5.6,4.6c-3.3,2.6-6.6,5-9.9,7.6
		c-1.7,1.3-3.6,2.3-5.6,3.6c-3.3,2-6.9,4-10.2,6c-1.3,0.7-2.6,1.3-4,2c-0.3,0.3-1,0.3-1.3,0.7c-1,0.7-2,1-3.3,1.7
		c-1.7,0.7-3.3,1.7-5,2.3c-1.3,0.7-2.6,1-4,1.7c-2.3,1-4.6,1.7-6.9,2.6c-1.7,0.7-3,1.3-4.6,1.7c-0.3,0-0.7,0-1,0.3
		c-2.3,1-4.6,1.7-6.9,2c-1.7,0.3-3.6,1-5.3,1.3c-2.6,0.7-5.3,1-7.6,1.7c-1,0.3-2,0.3-3,0.3c-3.6,0.7-7.3,1-11.2,1.3
		c-3.6,0.3-7.6,0.7-11.2,0.7c-4.3,0-8.6,0-12.9-0.3c-5-0.3-9.9-1.3-14.9-2c-6.3-1-12.6-2.6-18.5-4.6c-3.6-1-7.3-2.6-10.9-4
		c-4-1.7-7.6-3.3-11.2-5c-2.3-1-4.6-2.3-6.9-3.6c-5.3-3-10.6-6-15.9-9.6c-2.3-1.7-4.6-3.3-6.6-5c-5.3-4-10.2-8.3-14.9-12.9
		c-4.3-4.3-8.3-8.6-12.2-13.2c-2.6-3-5-6.6-7.6-9.9c-1.7-2.3-3-4.6-4.6-6.9c-2-3-4-6.3-5.6-9.6c-0.3-0.7-1-1.7-1.3-2.3
		c-1.3-2-2-4.3-3-6.3c-1.3-2.3-2-5-3.3-7.3c-0.3-1-0.7-1.7-1-2.6c-1.3-4-3-7.6-4.3-11.6c-1-4-2.6-7.6-3.6-11.6c-0.3-1.3-0.7-2.6-1-4
		c0-0.7-0.3-1-0.3-1.7c0-1-0.3-2-0.7-3c-0.7-2.3-1-4.6-1.3-6.9c-0.7-4-1.3-7.6-1.7-11.6c0-1-0.3-2-0.3-3c-0.3-3.6-0.7-6.9-0.7-10.6
		c-0.3-6,0-11.9,0.3-17.9c0.3-3.6,0.7-6.9,1-10.6c0.7-5.3,1.7-10.2,2.6-15.2c0.7-3.3,1.7-6.6,2.3-9.9c0.7-2.3,1.3-4.6,2.3-6.9
		c1.3-4,2.6-7.6,4.3-11.6c1.3-3.3,2.6-6.3,4.3-9.6c2-4.6,4.3-9.3,6.9-13.6c2.6-4.6,5.3-9.3,8.6-13.9c1.3-2,3-4.3,4.3-6.3
		c0.7-1,1.3-1.7,2-2.6c2.6-3.3,5.6-6.6,8.3-9.9c0.3-0.7,1-1,1.3-1.7c3.3-3.3,6.6-6.6,9.9-9.6c3-2.6,6-5,8.9-7.3c1-0.7,1.7-1.3,2.6-2
		c1.7-1.3,3.3-2.3,5-3.3c3.3-2,6.6-4,9.6-6c1-0.7,1.7-1,2.6-1.7c2-1,4-2,6-3c2.6-1.3,5.6-2.3,8.3-4c0.3-0.3,1-0.3,1.3-0.7
		c3.6-1.3,7.3-2.6,10.6-4c0.7-0.3,1.7-0.7,2.6-0.7c0.7-0.3,1.7-0.7,2.6-1c1-0.3,2-0.7,3-1c2.6-0.7,5.3-1.7,7.9-2.3
		c1.7-0.3,3-0.7,4.6-1c2-0.3,4-0.7,6-1.3c1.7-0.3,3-0.7,4.6-0.7c1,0,2.3-0.3,3.3-0.3c6.6-1,13.6-1,20.2-1c3.6,0,7.3,0.3,10.9,0.7
		c5,0.3,9.6,1.3,14.5,2c7.6,1.3,14.9,3.3,22.2,6c0.3,0,0.3,0.3,0.7,0.3v0.3c-0.3,0.3-0.3,0.3-0.7,0.7c-1,0.7-1.7,1-2.3,2
		c-1.3,1.3-2,2.6-2,4.6c0,1.3,0,3,0.7,4.3c0.3,0.3,0.3,1,0.3,1.3C472.8,435.5,472.8,435.9,472.5,436.2z M341.5,628h-0.3
		c-0.3,0-1,0.3-1.3,0.3c-8.3,3.3-16.5,6.3-24.8,9.6c-8.9,3.3-17.5,6.6-26.5,10.3c-0.7,0.3-1.3,0.7-2,0.7c-0.7,0.3-0.7,0.7-0.3,1.3
		c0.7,1.3,1,3,1.7,4.3c1,2,1.7,4.3,3,6.3c0.7,1.7,1.3,3.3,2.3,4.6c1.3,2.6,3,5.6,4.6,8.3c2.3,3.6,4.3,7.3,6.9,10.9
		c2.6,3.6,5.3,7.3,8.3,10.6c2.6,3.3,5.6,6.3,8.6,9.3c1.7,1.3,3,3,4.6,4.3c5.6,5,11.9,9.6,18.2,13.9c1,0.7,1.3,0.7,1.7-0.3
		c0-0.3,0.3-0.3,0.3-0.7c3.6-4.6,7.3-8.9,11.2-13.2c0.7-0.7,1.3-1.3,1.7-2c1.7-1.7,3-3,4.6-4.6c1.7-1.3,3-3,4.6-4.3s3.6-3,5.3-4.3
		c0.7-0.3,0.7-1,0.3-1.3c-0.3-0.3-0.3-0.7-0.7-1c-3.3-5-6.6-9.9-9.6-15.2c-2.6-4.6-5-8.9-7.3-13.6c-0.7-1-1-2.3-1.7-3.3
		c-1-1.3-1.7-3-2.3-4.6c-1-2-2-3.6-2.6-5.6c0-0.3-0.3-0.7-0.7-1c-0.3-0.7-0.7-1.7-1-2.3c-0.3-0.7-0.3-1.3-0.7-2
		c-1.7-3-2.6-6.6-4-9.6c-0.7-1.3-1-3-1.7-4.3c0-0.3-0.3-0.7-0.3-1C341.9,628.3,341.9,628,341.5,628z M323,542.3
		c-0.3,0-0.7-0.3-1-0.3c-1,0-1.7,0-2.6,0c-6.6,0-13.2,0-20.2-0.7c-4-0.3-7.9-0.7-11.6-1.3c-2-0.3-3.6-0.7-5.6-0.7
		c-0.3,0-0.7,0.3-1,0.7c-0.3,1-0.7,2-1,3.3c-1,4-2.3,7.9-3,11.9c-0.3,2-0.7,4.3-1.3,6.3c0,0.7-0.3,1.7-0.3,2.3
		c-0.3,3.3-0.7,6.6-1,9.9c-0.3,3.6-0.7,6.9-0.7,10.6c0,3.6,0,6.9,0,10.6c0,1.7,0,3,0,4.6c0.3,2.3,0.3,5,0.7,7.3
		c0.3,3,0.7,5.6,1.3,8.6c0.3,1,0.3,2.3,0.7,3.6c0.3,2,0.7,4,1.3,6c0,0.3,0,0.3,0.3,0.7c0.3,1.3,0.7,2.6,1,4.3c0.3,0.7,0.3,1.3,0.7,2
		c0.3,1.3,0.7,2.3,1,3.3c0,0.3,0.7,0.3,0.7,0.3c0.7-0.3,1.3-0.3,1.7-0.7c6.9-2.6,13.9-5.3,20.8-7.9c9.9-4,19.8-7.6,29.8-11.6
		c0.7-0.3,1.3-0.7,2.3-1c0.3,0,0.3-0.7,0.3-0.7c0-0.3,0-0.3,0-0.7c-0.3-1.7-1-3-1.3-4.6c-0.3-1.3-0.7-3-1.3-4.3
		c-1-3-1.7-6.3-2.6-9.6c0-0.3,0-0.3-0.3-0.7c0-1-0.3-2-0.7-3c0-0.3-0.3-0.7-0.3-1c-0.3-2-1-3.6-1.3-5.6c-0.3-1.7-0.7-3.3-1-5
		c-0.3-2.3-1-5-1.3-7.3c-0.3-2.3-0.7-5-1.3-7.3c-0.3-3-1-6.3-1.3-9.3s-0.7-6-1-8.9C323.4,545,323.4,543.6,323,542.3z M385.9,684.5
		c0.7-0.3,1-0.7,1.7-1c1.7-1.3,3.3-2.6,5.3-3.6c3-2,6-4,8.9-5.6c2-1.3,4-2.3,6-3.3c1.3-0.7,2.6-1.3,4-2c1.3-0.7,3-1.7,4.3-2.3
		c2-1,4-2.3,6.3-3c0.3,0,0.7-0.3,1-0.7c3-1.3,6-3,8.9-4.3c2.3-1,4.6-2,7.3-2.6c0.7-0.3,1-0.3,1.7-0.7c0.3,0,0.3-0.7,0.3-1
		c-0.3-0.7-0.3-1.3-0.7-2c-6-17.5-11.9-34.7-17.9-52.2c0-0.3-0.3-1-0.3-1.3c-0.3-0.7-0.7-1-1.7-0.7c-0.7,0.3-1,0.3-1.7,0.7
		c-4.6,1.7-9.3,3.6-14.2,5.3c-15.9,6-31.7,12.2-47.6,18.2c-0.7,0.3-1.3,0.7-2,1c-0.3,0-0.3,0.7-0.3,0.7c0,0.3,0,0.3,0.3,0.7
		c1,2.6,2,5.6,3,8.3c0.3,0.7,0.3,1,0.7,1.7c1.3,3,2.3,6,4,8.9c0,0,0,0,0,0.3c0.3,1,0.7,1.7,1.3,2.6c0.3,0.7,0.7,1,0.7,1.7
		c0.7,2,1.7,3.6,2.6,5.3c0.7,1.7,1.7,3.3,2.3,5c0.3,1,1,1.7,1.3,2.6c1,2.3,2.3,4.3,3.3,6.6c1.7,3,3.3,6,5.3,8.9
		c1.7,2.6,3.3,5.3,5,7.9C384.9,683.8,385.2,684.5,385.9,684.5z M515.5,635.2c0-0.3,0-0.7,0-1c0-1.3-0.3-2.6-0.3-4
		c-0.3-2-0.3-4.3-0.7-6.3s-0.3-3.6-0.7-5.6c-0.7-5-1.7-9.6-2.3-14.5c-0.3-2.6-1-5.3-1.7-7.9c0-0.7-0.3-1.3-0.3-2
		c0-0.3-0.3-1-0.3-1.3c-0.7-2.3-1.3-5-2-7.3c-0.3-2-1-3.6-1.7-5.6c-0.7-1.7-1-3.6-1.3-5.3c-0.7-2.3-1.3-4.3-2-6.6
		c-0.3-0.3-0.7-0.7-1.3-0.3c-0.7,0.3-1.3,0.3-1.7,0.7c-18.2,6.9-36.4,13.9-54.6,20.8c-2.3,1-5,2-7.3,3c-0.3,0.3-1,0.3-1.3,0.7
		c-0.3,0-0.3,0.7-0.3,0.7c0.3,0.7,0.3,1.3,0.7,2c2.6,7.3,5,14.9,7.6,22.2c3.3,9.9,6.9,20.2,10.2,30.1c0.3,0.7,0.3,1.3,0.7,1.7
		c0.3,0.3,0.7,0.7,1.3,0.3c1-0.3,2.3-0.7,3.3-1.3c1.7-0.7,3-1.3,4.6-1.7c1-0.3,1.7-0.3,2.6-0.7c2.6-1,5.3-1.7,7.9-2.3
		c2-0.7,4-1,5.6-1.7c2-0.3,4-1,6-1.3c1-0.3,2.3-0.3,3.3-0.7c4.6-1,8.9-2,13.6-2.6c3.3-0.7,6.6-1,10.2-1.3
		C513.8,635.6,514.5,635.6,515.5,635.2z M335.9,543c0.3,2.6,0.3,5,0.7,6.9c0.3,3.6,1,7.3,1.7,10.9c0.7,3.6,1,6.9,2,10.6
		c0.3,1.3,0.7,2.3,0.7,3.6c0.3,2,1,3.6,1.3,5.6s0.7,4,1.7,6c0,0.3,0,0.7,0.3,1c0.3,1,0.3,2,0.7,2.6c0.3,1,0.7,2.3,1,3.3
		c0.3,0.7,0.3,1.3,0.7,2c0.3,1.7,1,3,1.3,4.6c0.7,2.3,1.3,4.3,2,6.6c0.7,2.3,0.7,2,3,1.3c12.2-4.6,24.1-9.3,36.4-13.9
		c8.6-3.3,17.2-6.6,25.8-9.9c0.7-0.3,1.3-0.7,2.3-1c0.3-0.3,0.7-0.7,0.7-1c-0.3-0.7-0.3-1.3-0.7-2c-6-17.2-11.9-34.4-17.9-51.6
		c-0.3-0.7-0.3-1-0.7-1.7c0-0.3-0.7-0.7-1-0.3c-1.3,0.3-2.3,0.7-3.6,1c-2,0.7-4.3,1.7-6.3,2c-1,0.3-2,0.7-3.3,1
		c-2.3,0.7-4.6,1-6.6,2c0,0,0,0-0.3,0c-2,0.3-4,1-5.6,1.3c-1.7,0.3-3.3,0.7-5,1c-3,0.7-6,1-9.3,1.7c-4,1-8.3,1.3-12.2,2
		c-2.3,0.3-4.6,0.7-6.9,1c-0.3,0-1,0.3-1.3,0.3l-0.3,0.3C335.9,542,335.9,542.7,335.9,543z M465.9,491.1
		C465.9,491.1,465.5,491.1,465.9,491.1c-0.7,0.3-1.3,0.7-1.7,0.7c-2.3,1.7-5,3.3-7.3,5c-2.3,1.7-4.6,3-6.9,4.6c-2.3,1.3-5,3-7.3,4.3
		c-2.6,1.7-5,3-7.6,4.3c-0.3,0-0.7,0.3-1,0.3c-1.7,1-3.6,2-5.6,3c-0.7,0.3-1.7,1-2.6,1.3c-0.7,0.3-1,0.7-1.7,1c-1.3,0.7-2.6,1.3-4,2
		c-1.3,0.7-2.3,1-3.6,1.7c-2,0.7-3.6,1.7-5.6,2.3c-0.3,0.3-0.7,0.7-0.3,1c0.3,0.7,0.3,1.3,0.7,1.7c4,11.2,7.9,22.8,11.9,34.1
		c2,6,4,11.9,6.3,17.9c0.3,0.7,0.3,1,0.7,1.7c0,0,0.3,0.3,0.7,0.3s1-0.3,1.3-0.3c2.3-1,4.6-1.7,6.9-2.6
		c18.5-6.9,36.7-14.2,55.2-21.2c0.7-0.3,1.3-0.7,2-0.7c0.3-0.3,0.7-0.7,0.3-1c-0.7-1.7-1-3-1.7-4.6c-1.7-3.3-2.6-6.9-4.3-10.3
		c0,0,0-0.3-0.3-0.3c-1-2.6-2.3-5-3.3-7.6c-0.3-1-1-2-1.3-3c-0.7-1.7-1.3-3-2.3-4.6c-1-2.3-2.3-4.3-3.3-6.6
		c-1.7-3.6-3.6-6.9-5.6-10.6c-2.3-4.3-5-8.3-7.6-12.2C466.9,492.1,466.2,491.7,465.9,491.1L465.9,491.1z M335.6,518.5
		c0,2.3,0,4.6,0,6.9c0,0.3,0,0.7,0,1.3c0,0,0.3,0.3,0.7,0.3c0.3,0,1,0,1.3,0c3-0.3,6-1,8.6-1.3c1.7-0.3,3.3-0.3,5-1
		c4-1,7.9-1.7,11.6-2.3c2-0.3,4-1,6-1.3c2-0.7,4.3-1.3,6.3-1.7c0.3,0,0.3,0,0.7,0c0.7-0.3,1.3-0.3,2-0.7c1-0.3,2-0.7,3-1
		c0.7-0.3,1.7-0.3,2.3-0.7c1.7-0.3,3-1,4.6-1.3c1.3-0.3,2.3-0.7,3.6-1.3c0.3,0,0.7-0.3,1-0.3c0.3,0,0.7-0.7,0.3-1
		c-0.3-1-0.7-1.7-0.7-2.6c-6-17.5-11.9-34.7-17.9-52.2c-1.7-5.3-3.6-10.3-5.3-15.5c-0.3-0.7-0.3-1.3-0.7-1.7c0-0.3-0.7-0.3-0.7-0.3
		c-0.3,0-0.7,0.3-1,0.3c-1.7,1-3,1.7-4.6,2.6c-1,0.7-2,1.3-3,2c-1,1-1.7,1.7-2.6,2.6c-0.3,0.3-0.7,0.7-1,1c-2.6,3.3-5,6.9-7.3,10.6
		c-0.3,0.3-0.3,1-0.7,1.3c-1.3,2.6-2.3,5.3-3.3,8.3c-2,5-3.3,9.9-4.3,15.2c-0.7,2.3-1,4.6-1.3,6.9c-0.7,3.3-1,6.9-1.3,10.3
		c-0.3,2.6-0.3,5.3-0.7,8.3C335.6,512.2,335.6,515.2,335.6,518.5z M392.5,433.2c-0.7,0-1.3,0-2-0.3c-0.7,0-1.3,0-2,0.3
		c-2,0.3-4,1-6,1.3c-1.3,0.3-1.3,0.7-1,2c0.3,0.7,0.3,1.3,0.7,1.7c1.7,5,3.3,9.6,5,14.5c6.3,17.9,12.2,35.7,18.5,53.2
		c1,2.6,0.7,2.6,3.3,1.3c2.6-1,5.3-2.3,7.9-3.6c1.7-0.7,3-1.7,4.6-2.3c0.3,0,0.7-0.3,1-0.3c0.7-0.3,1.7-0.7,2.3-1.3
		c0.7-0.3,1-0.3,1.7-0.7c1.7-1,3.6-1.7,5.6-3c1.7-0.7,3-1.7,4.3-2.3c2.3-1.3,4.3-2.6,6.6-4c1-0.7,2.3-1.3,3.3-2
		c2.3-1.3,4.6-3,6.9-4.3c1.7-1,3.6-2.3,5.3-3.6c0.3-0.3,0.3-0.7,0-1c-1-1.3-2-2.6-3-3.6c-2.3-3-4.6-5.6-7.3-8.3c-2-2-3.6-4-5.6-5.6
		c-3-3-6-5.6-8.9-8.3c-3.6-3.3-7.6-6.3-11.6-8.9c-3.3-2-6.3-4.3-9.9-6c-0.7-0.3-1.7-0.7-2.3-1c-2.6-1.3-5.6-2-8.6-3
		C398.1,433.9,395.1,432.9,392.5,433.2z M461.6,742.7c1.3,0,2.6,0,3.6-0.7c0.3-0.3,1-0.3,1.3-0.3c1-0.3,2-0.7,3.3-1
		c0.3,0,0.3-0.3,0.7-0.3l0.3-0.3c0-0.3,0-0.7-0.3-1c-1.7-5.3-3.6-10.6-5.3-15.9c-6-17.5-12.2-35-18.2-52.6c-0.3-0.7-0.3-1.3-0.7-1.7
		c-0.3-0.7-0.7-1-1.3-0.7c-1.7,0.7-3.3,1-4.6,2c-1.7,0.7-3.3,1.7-5.3,2.3c-2,0.7-4,1.3-5.6,2.6c0,0-0.3,0-0.3,0.3c-2,1-4,2-6,3
		c-2.3,1.3-4.6,2.3-6.6,3.6c-1.3,0.7-2.3,1.3-3.6,2c-3.3,2-6.6,4-9.9,6.3c-3,2-5.6,3.6-8.6,5.6l-0.3,0.3c0,0.3,0,0.3,0,0.7
		c0.3,0.3,0.3,0.7,0.7,1c1.3,1.7,2.6,3.3,4.3,5c5.6,6.3,11.2,12.9,17.5,18.5c0.7,0.7,1.7,1.3,2.6,2.3c1.3,1,2.3,2,3.6,3
		c4,3,7.9,6,12.6,8.6c2.3,1.3,4.3,2.3,6.6,3.3c1.3,0.7,2.6,1,3.6,1.7c4,1.3,7.9,2.3,11.9,3C458.6,742.4,460.2,742.4,461.6,742.7z
		 M516.1,657.4L516.1,657.4c0-2.3,0.3-4.6,0.3-6.9c0-0.3,0-0.3,0-0.7c0-0.3-0.3-0.7-0.7-0.7c-2.3,0.3-4.6,0.3-7.3,0.7
		c-1.7,0.3-3,0.3-4.6,0.7s-3.3,0.7-5,1c-2.3,0.3-4.3,1-6.6,1.3c-2.3,0.7-4.6,1-6.6,1.7c-0.3,0-0.3,0-0.7,0.3
		c-2.3,0.3-4.3,1.3-6.6,1.7c-0.3,0-0.7,0.3-1,0.3c-0.7,0.3-1,0.3-1.7,0.3c-1,0-2.3,0.7-3.3,1c-1.7,0.7-3.3,1.3-5,1.7
		c-2.3,0.7-4.3,1.3-6.6,2.3c-0.3,0.3-1,0.3-1.3,0.7c-0.3,0-0.3,0.7-0.3,1c0,0.3,0.3,1,0.3,1.3c2,5.6,4,11.6,6,17.2
		c6,16.9,11.6,33.7,17.5,50.9c0.3,0.7,0.3,1.3,0.7,2c0,0.3,0.7,0.3,0.7,0.3c1.3-0.7,2.6-1,3.6-1.7c1-0.3,2-1,3-1.3
		c0.7-0.3,1-0.7,1.3-1c3-3,5.6-6.3,7.9-9.9l0.3-0.3c0.7-1.3,1.7-2.6,2.3-4.3c1.7-3,3-6,4.3-9.3c0.3-1.3,0.7-2.3,1.3-3.6
		c1.3-3.6,2.3-7.3,3-10.9c1-4,1.7-8.3,2.3-12.2c0.3-3,1-6,1-8.9c0.3-3.6,0.7-6.9,0.7-10.6C516.1,660,516.1,658.7,516.1,657.4z
		 M309.1,528.1c3.3,0,6.6,0,9.9-0.3c0.7,0,1.7,0,2.3,0c0.3,0,1-0.3,1-1c0-0.7,0-1.3,0-2c-0.3-9.3,0.3-18.5,1.3-27.8c0-1,0.3-2,0.3-3
		c0.7-5.3,1.7-10.6,3-15.5c1.3-5,2.6-9.9,4.6-14.5c0.3-0.3,0.3-1,0.7-1.3v-0.3V462H332c-1.7,1.3-3.6,3-5.3,4.3c-1,1-2.3,2-3.3,3
		c-1,1-1.7,1.7-2.6,2.6c-3.6,3.3-6.6,7.3-9.9,10.6c-0.3,0.3-0.3,0.7-0.7,1c-3.3,4.3-6.6,8.6-9.6,12.9c-1,1.3-1.7,2.6-2.3,4
		c-2.3,4-4.6,7.9-6.6,11.9c-1,1.7-1.7,3.6-2.6,5.3c-1,2-1.7,4-2.3,5.6c-0.3,0.7-0.7,1.3-0.7,2c-0.3,0.7,0,1,0.7,1h0.3
		c2,0.3,4,0.3,6,0.7C298.6,527.8,303.9,528.1,309.1,528.1z M420.9,747.7c2.3,0,4.6,0,6.9,0c0.7,0,1.3,0,2,0l0.3-0.3V747
		c-0.3-0.3-0.7-0.3-1-0.7c-1.7-1-3.3-1.7-4.6-2.6c-5.6-3.6-11.2-7.6-16.2-12.2c-3.3-3-6.6-6-9.9-9.3c-4.6-5-8.9-9.9-13.2-15.2
		c-0.3-0.3-0.7-1-1-1.3c0-0.3-0.3-0.3-0.7-0.3c-0.3-0.3-0.7-0.3-1,0c-0.3,0-0.3,0.3-0.7,0.3c-4,3-7.6,6.3-11.2,9.6
		c-5,4.6-9.6,9.3-13.6,14.9c0,0.3-0.3,0.3-0.3,0.7v0.3c0.3,0.3,0.7,0.3,1,0.7c4,2,7.9,4,11.9,5.6c5.3,2.3,10.9,4.3,16.5,6
		c2.3,0.7,4.3,1.3,6.6,1.7c5.3,1,10.9,2,16.2,2.6c2.3,0.3,4.6,0.3,6.9,0.7C417.9,747.3,419.6,747.3,420.9,747.7z M519.4,712.6
		c0,0.3,0,0.3,0,0.3s0.3,0,0.7,0c0,0,0,0,0.3,0c3-3,6.3-5.6,8.9-8.6c1.7-1.7,3.3-3.3,5-5c2.6-3,5-6,7.6-8.9c1.7-2,3.3-3.6,4.6-6
		c2.3-3.3,4.6-6.6,6.6-10.3c1.3-2.3,3-4.6,4.3-7.3c2.6-5,5.3-9.9,7.6-15.2c0-0.3,0.3-0.7,0.3-1c0-0.3-0.3-0.7-0.3-0.7h-0.3
		c-4-0.7-7.9-1.3-11.9-1.7c-4.6-0.3-9.3-0.7-13.9-0.7c-2.6,0-5.3,0-8.3,0.3c-0.7,0-1,0.3-1,1c0,0.3,0,0.7,0,1.3
		c0,5-0.3,10.2-0.7,15.2c0,0.7,0,1.3-0.3,2c-0.3,3.6-0.7,7.3-1,10.9c-0.3,2.3-0.7,5-1,7.3c-0.3,2.3-1,4.6-1.3,6.9
		c-0.7,2.6-1.3,5.6-2,8.3c-1,3.6-2.3,7.3-3.3,10.9C519.4,711.9,519.4,712.3,519.4,712.6z"/>
	<path class="st0" d="M667.6,618c0-53.2,0-106.5,0-159.7c0-1,0-1.7,0-2.6c0-0.3,0.3-0.7,0.7-0.7c1,0,2.3,0.3,3.3,0.3
		c5.3,1,10.6,1.7,15.9,2.6c9.9,2,19.5,5,28.8,9.3c13.9,6.6,25.5,15.9,34.4,28.8c3,4.3,5.6,8.6,7.9,13.2c0.3,1,0.7,2,0.7,3
		c0,0.7,0,1.3,0,2.3c0,64.5,0,128.6,0,193.1c0,39.7,0,79,0,118.7c0,1,0,1.7,0,2.6c0,0,0,0,0,0.3h-0.3c-0.7-0.7-1-1-1.3-1.7
		c-10.6-11.9-22.5-21.5-36.4-29.4c-12.2-6.9-25.5-11.9-39.3-14.9c-4-1-8.3-1.7-12.2-2c-0.3,0-0.3,0-0.7,0c-0.7,0-0.7-0.3-0.7-1
		c0-0.3,0-0.7,0-1c0-0.7,0-1.3,0-2.3C667.6,723.8,667.6,670.9,667.6,618z"/>
	<path class="st0" d="M262.2,840.6c0.3,0,0.7,0,1,0.3c2,1,4,2,6,3c13.2,6.3,27.1,11.6,41.3,15.2c6.9,2,14.2,3.3,21.5,4.6
		c5.6,1,11.2,1.7,16.9,2c5.3,0.3,10.6,0.7,15.9,0.7c6.3,0,12.6-0.3,18.5-0.7c4.3-0.3,8.3-0.7,12.2-1.3c6-0.7,11.6-1.7,17.5-2.6
		c7.6-1.3,15.2-3,22.8-5c14.9-3.6,29.8-8.3,44-13.6c15.9-5.6,31.4-11.6,47-17.5c10.2-4,20.2-7.9,30.4-11.6
		c10.6-4,21.5-7.6,32.4-10.9c8.6-2.6,17.5-5,26.5-6.6c6.3-1.3,12.2-2.3,18.5-3c7.3-0.7,14.5-1.3,21.8-1c6,0.3,12.2,0.7,18.2,1.7
		c7.3,1.3,14.5,3,21.8,5.6c10.6,4,20.5,9.3,29.4,15.5c8.9,6.3,16.9,13.2,24.1,21.2c2.3,2.6,4.6,5.3,7.3,7.9c0.3,0.3,0.7,1,1,1.3
		c0.3,0.3,0.3,0.7,0.3,1c0,0.3,0,0.7,0,1.3c0,3.3,0,6.9,0,10.3c0,0.3,0,1,0,1.3c0,0.3-0.3,0.3-0.7,0.3c-0.7-0.7-1.3-1-2-1.7
		c-4.3-3.6-8.6-7.3-13.2-10.9c-8.9-6.6-18.2-12.2-28.1-16.9c-10.2-4.6-20.8-7.9-32.1-10.2c-6.6-1.3-13.2-2-19.8-2.3
		c-3.6-0.3-7.3-0.3-10.9-0.3c-5,0-10.2,0.3-15.2,0.7c-5,0.3-9.6,1-14.5,1.7c-5.6,0.7-11.2,2-16.9,3c-14.9,3-29.8,6.9-44.3,11.6
		c-12.6,3.6-24.8,7.6-37.4,11.6s-24.8,7.6-37.4,10.9c-11.9,3.3-24.1,6.3-36.4,8.9c-7.9,1.7-15.5,3-23.5,4c-4.6,0.7-9.3,1.3-13.9,1.7
		c-2.3,0.3-4.3,0.3-6.6,0.7c-6.3,0.3-12.9,0.7-19.2,0.7s-12.9,0-19.2-0.7c-4.3-0.3-8.6-0.7-13.2-1.3c-5.3-0.7-10.6-1.3-15.9-2.3
		c-13.2-2.6-26.1-6-39-10.6c-12.6-4.6-24.5-9.9-36-16.2c-0.3-0.3-1-0.7-1.3-1C262.5,840.9,262.5,840.6,262.2,840.6L262.2,840.6z"/>
	<path class="st0" d="M265.2,854.8c0.7,0,1,0,1.3,0.3c4,1.7,7.9,3.3,11.9,4.6c11.6,4.3,23.1,7.6,35.4,10.3c7.6,1.7,15.2,3,22.8,4
		c5.6,0.7,11.2,1.3,17.2,1.7c7.3,0.3,14.5,0.7,22.2,0.7c5.6,0,10.9-0.3,16.5-0.7c5-0.3,9.6-0.7,14.5-1.3c7.3-0.7,14.5-1.7,21.8-3
		c11.9-2,24.1-4.3,35.7-7.3c15.2-3.6,30.4-7.6,45.3-11.9c11.9-3.3,23.5-6.6,35.4-9.9c12.2-3.3,24.5-6.6,36.7-9.3
		c6-1.3,12.2-2.6,18.2-3.6c3.6-0.7,7.3-1.3,10.9-1.7c3.3-0.3,6.9-0.7,10.2-1c3-0.3,6.3-0.7,9.3-0.7s6-0.3,8.9-0.3c3,0,6,0,8.9,0
		c5.3,0.3,10.2,0.7,15.5,1.3c9.9,1.3,19.5,3.3,28.8,6.6c11.6,4,22.5,9.3,32.7,15.9c11.6,7.3,22.2,16.2,32.1,25.8
		c0.3,0.3,0.7,0.7,1,1c0,0.7,0,1,0,1.7c0,2.6,0,5.3,0,7.9c0,0.3-0.3,0.3-0.7,0.3c-0.3,0-0.3-0.3-0.7-0.3c-0.7-0.3-1-0.7-1.7-1.3
		c-6.6-5.3-13.9-9.9-21.2-14.2c-15.5-8.9-31.7-15.5-49.3-19.5c-4.6-1-9.6-2-14.2-2.6c-5.6-0.7-11.2-1.3-16.5-1.7
		c-5.3-0.3-10.6-0.3-15.9-0.3c-2.3,0-4.6,0-6.9,0c-4.3,0-8.6,0.3-12.6,0.7c-2.3,0.3-4.6,0.3-7.3,0.7c-1.7,0.3-3.6,0.3-5.3,0.7
		c-5.6,0.7-10.9,1.3-16.2,2.3c-5,0.7-9.6,1.7-14.5,2.6c-14.5,2.6-29.1,6-43.6,9.3c-12.6,2.6-25.5,5.6-38,8.3
		c-9.6,2-18.8,3.6-28.4,5.3c-6,1-12.2,2-18.2,2.6c-5,0.7-9.6,1.3-14.5,1.7c-2.6,0.3-5.3,0.3-7.9,0.7c-3.3,0.3-6.9,0.3-10.2,0.7
		c-0.3,0-0.3,0-0.7,0c-8.9,0.3-17.9,0.7-27.1,0.3c-5.6-0.3-11.6-0.3-17.2-1c-4-0.3-7.9-0.7-12.2-1.3c-4-0.3-7.6-1-11.2-1.7
		c-5-0.7-9.9-1.7-14.5-2.6c-10.9-2.3-21.8-5-32.4-8.6c-10.9-3.3-21.5-7.6-31.7-11.9c-0.7-0.3-1.3-0.7-2.3-1
		C265.2,855.1,265.2,854.8,265.2,854.8L265.2,854.8z"/>
	<path class="st0" d="M759.2,455.4c0,11.9,0,24.1,0,36c0,0.7,0,1.7,0,2.3c0,0,0,0,0,0.3h-0.3c-0.3-0.7-0.7-1.3-1-2
		c-2.6-6-6-11.6-9.9-16.5c-5-6.3-10.9-11.9-17.5-16.2c-5.3-3.3-10.9-6-16.9-8.3c-6-2-12.2-3.6-18.8-4.6c-4.6-0.7-9.6-1.3-14.2-2
		c-3.6-0.3-7.3-0.7-10.6-1c-0.3,0-0.7,0-1.3-0.3l-0.3-0.3v-0.3c0-1.7,0-3.3,0-5c0.3-2,0.7-4.3,1.3-6.3c2.3-6.6,6-11.6,11.9-15.5
		c3-2,6.3-3.3,9.9-4c1-0.3,2.3-0.3,3.3-0.3c0.7,0,1.3,0,2.3,0c18.2,0,36.4,0,54.6,0c1,0,2.3,0,3.3,0c2.3,0.3,4,1.7,4.6,4
		c0.3,0.7,0.3,1.3,0.3,2c0,0.7,0,1.3,0,2.3C759.2,431.2,759.2,443.1,759.2,455.4z"/>
	<path class="st0" d="M582.3,603.8c0,5-0.3,9.9-0.3,14.9c0,0.3,0,0.7-0.3,1h-0.3c0,0,0,0-0.3,0c-1.3-2-2.6-3.6-4.3-5
		c-5-4.3-10.2-7.9-16.2-10.6c-0.7-0.3-1.3-0.7-2-1c-1.7-0.7-3.6-1.3-5.6-1.3c-0.3,0-0.3-0.3-0.3-0.7c0.3-0.3,0.3-0.7,0.7-1.3
		c4.3-6.6,8.6-13.6,12.9-20.2c0.3-0.3,0.7-0.7,0.7-1.3c0-0.3,0.3-0.3,0.7-0.3c0.7,0,1.3,0,2,0c0.7,0.3,1.7,0.3,2.3,0.7
		c3,1.3,5.6,3,7.9,5.3c0.7,0.7,1,1.3,1.7,2c0.7,1,1,2,1,3.3c0,3.3-0.3,6.3-0.3,9.6C582.3,600.2,582.3,602.2,582.3,603.8
		C581.9,603.8,581.9,603.8,582.3,603.8z"/>
	<path class="st0" d="M584.9,603.8c0-5,0.3-9.9,0.3-14.9c0-1.7,0.7-2.6,1.7-4c3-3,6.6-5.3,10.6-6.3c0.7,0,1-0.3,1.7-0.3
		c1.3,0,2,0.3,2.3,1.3c4,7.3,8.3,14.5,12.2,21.8c0,0.3,0.3,0.7,0.3,1c0,0.3,0,0.7-0.3,0.7c-2.3,0-4.3,0.7-6.3,1.3
		c-1.3,0.3-2.3,1-3.6,1.3c-4.3,2-8.6,4.3-12.6,7.3c-2.3,1.7-4.6,3.6-6.3,6h-0.3l-0.3-0.3c0-0.3,0-1,0-1.3c0-2,0-3.6,0-5.6
		C584.6,609.4,584.9,606.8,584.9,603.8L584.9,603.8z"/>
	<path class="st0" d="M546.5,603.8c0.7,0,1.3,0,2,0.3c0.7,0,1.3,0.3,2,0.3c8.3,1.7,15.5,5,21.8,10.6c3,2.6,5.6,6,7.6,9.3v0.3h-0.3
		c-0.7-0.7-1.3-1-2-1.7c-4-3-8.3-5.6-12.9-7.6c-6-2.6-11.9-4.3-18.5-5c-4-0.3-7.9-0.3-11.9,0.3c-1,0-1.7,0.3-2.6,0.7h-0.3v-0.3
		c0.3-0.3,0.3-1,0.7-1.3c6.6-9.9,12.9-19.8,19.5-29.8c0.7-1,1.7-1.7,2.6-2.3c2-1,4.3-1.7,6.3-1.7c0.7,0,1.3,0,2,0
		c1,0,1.3,0.7,0.7,1.3c-1.7,2.3-3.3,5-5,7.3c-3.6,5.6-7.3,10.9-10.9,16.5c-0.3,0.3-0.7,1-1,1.3C546.5,603.5,546.5,603.5,546.5,603.8
		z"/>
	<path class="st0" d="M631.2,614.1c-2.3-0.3-4.6-1-6.6-1c-1.3,0-2.6,0-4,0c-6.6,0-12.9,1.3-19.2,3.6c-5,2-9.6,4.3-14.2,7.3
		c-0.7,0.3-1,0.7-1.7,1h-0.3v-0.3c0.3-0.7,0.7-1,1-1.7c5.6-7.6,13.2-12.6,22.2-15.2c3-1,5.6-1.3,8.6-1.7c1,0,1.7-0.3,2.6-0.3
		c0.3,0,0.3-0.3,0.3-0.7c-0.3-0.7-0.7-1-1-1.7c-4.6-7.9-9.3-15.5-13.6-23.1c-0.3-0.7-0.7-1.3-1-2c0-0.3,0-0.7,0.3-0.7s0.3,0,0.7-0.3
		c1.3-0.3,2.6,0,3.6,0.3c1.7,0.3,3.6,1,5,2c0.7,0.3,1.3,1,1.7,1.7c0.7,1.3,1.7,2.6,2.3,4.3c5,8.9,10.2,17.9,15.2,26.8
		c0.3,0.3,0.7,1,0.7,1.3c0,0.3,0,0.7,0,0.7h-0.3C633.2,614.4,631.9,614.1,631.2,614.1z"/>
	<path class="st0" d="M606.1,530.1l-0.3,0.3c-2,0-4,0.7-6,1.3c-4.3,1.7-8.6,3.6-12.2,6.3c-1.3,0.7-2.3,1.7-3.3,2.6h-0.3l-0.3-0.3
		c0.3-1.3,0.3-2.6,0.7-4c1-5.3,2.3-10.6,3.3-15.5c0.3-1,0.7-1.7,1.3-2.3c2.6-2.6,5.6-4.3,8.9-5.3h0.3c0.3,0,0.7,0.3,1,0.7
		c0.3,0.7,0.7,1.7,1,2.3c1.7,4,3.6,8.3,5.3,12.2C606.1,529.1,606.4,529.4,606.1,530.1z"/>
	<path class="st0" d="M583.6,544.3c0.7,0,1-0.7,1.3-1c2-2,4-3.6,6.3-5.3c5.3-3.3,10.9-5,16.9-5.6c0.7,0,1.7,0,2.3-0.3c0,0,0,0,0.3,0
		c0-0.3,0-0.3,0-0.7c0-0.3-0.3-0.7-0.3-1c-2.3-5-4.6-9.9-6.9-14.5c-0.3-1-0.7-1.7-1.3-2.6v-0.3c0-0.3,0-0.7,0.3-0.7c1-0.3,2-0.3,3,0
		c0.7,0,1.7,0.3,2.3,0.7c1.3,0.3,2,1.3,2.6,2.3c3.3,6.6,6.3,12.9,9.6,19.5c0.7,1.7,1.3,3,2.3,4.6c0,0.3,0,0.3,0,0.3s0,0-0.3,0h-0.3
		c-0.7,0-1-0.3-1.7-0.7c-2.3-0.7-4.6-1-6.9-1.3c-4-0.3-7.6,0-11.6,0.3c-5.3,1-9.9,2.6-14.5,5c-0.7,0.3-1.3,0.7-2,1
		C584.2,545,583.9,544.6,583.6,544.3L583.6,544.3z"/>
	<path class="st0" d="M581.9,540.7c-0.3,0-0.3,0-0.3-0.3c-2-4-5-6.9-8.6-9.6c-1.3-1-3-1.7-4.3-2.3c-0.3,0-0.3-0.3-0.3-0.7
		c0.7-1,1.3-1.7,2-2.6c2.6-3.3,5.3-6.6,7.6-9.9c0-0.3,0.3-0.3,0.3-0.7c0.7-1,1.3-1,2.3-0.7c2.6,0.7,4.6,2.3,5.6,4.6
		c0.3,0.3,0.3,1,0.3,1.3c-0.3,1-0.3,2-0.7,3c-1,5-2,9.9-3.3,14.9C582.3,539,581.9,539.7,581.9,540.7z"/>
	<path class="st0" d="M564.4,529.8c0.3,0.3,0.3,0.3,0.7,0.3c0.7,0,1,0.3,1.7,0.3c5,1.3,8.6,4.3,11.2,8.6c1,1.7,1.7,3,2.3,4.6v0.3
		c0,0-0.3,0-0.7,0c0-0.3-0.3-0.3-0.3-0.7c-0.3-0.3-0.7-0.7-1-1c-2-2-4-3.6-6.3-5c-2-1.3-4-2-6.3-2.6c-2.3-0.7-4.6-0.7-6.9-0.7
		c-0.7,0-1,0-1.7,0c0,0-0.3,0-0.3-0.3c0,0,0,0,0-0.3c1-1.3,2-2.6,3-4c3.3-4.3,6.6-8.6,9.9-12.9c0.3-0.3,0.3-0.7,0.7-1
		c1.3-2,3.6-2.6,6-2.6h0.3c0.3,0,0.3,0.3,0.3,0.7c-0.3,0.3-0.3,0.7-0.7,1c-3.3,4.3-6.9,8.9-10.2,13.2
		C565.1,528.8,564.7,529.1,564.4,529.8z"/>
	<path class="st0" d="M565.4,476.5c-4.6,2.3-8.3,6-11.6,10.3c0,0.3-0.3,0.3-0.7,0.3c0,0-0.3,0-0.3-0.7c-0.3-4-0.3-7.9-0.7-11.6
		c0-1.7,0.3-2.6,1.3-4c1-1,2-2.3,3-3c0.3-0.3,0.7-0.3,1-0.7c0.3,0,0.3,0,0.7,0s0.3,0.3,0.7,0.3c2,2.6,4,5,6.3,7.6
		C565.1,475.9,565.4,476.2,565.4,476.5z"/>
	<path class="st0" d="M557.5,486.8c-1.3,1.3-2.3,2-3,2.6c0,0,0,0-0.3,0c0,0,0,0,0-0.3c0-0.3,0.3-0.7,0.3-1
		c2.6-4.6,6.6-8.3,11.6-10.3c0.3,0,0.7-0.3,1-0.3c2-0.7,2-0.7,0.7-2.3c-2.3-2.6-4.6-5.3-6.6-7.9c-0.3-0.3-0.3-0.7-0.7-1
		c0,0,0-0.7,0.3-0.7c1.3-0.7,2.6-1,4.3-0.3c0.3,0,0.7,0.3,0.7,0.3c0.3,0.3,0.3,0.3,0.7,0.7c3.3,4,6.9,7.6,10.2,11.6
		c0.3,0.3,0.3,0.3,0.7,0.7c0,0,0,0,0,0.3c0,0.3,0,0.3-0.3,0.3c0,0,0,0-0.3,0C569,479.8,562.7,482.5,557.5,486.8z"/>
	<path class="st0" d="M551.5,480.8c0,2,0.3,3.6,0.3,5.6c0,0.3,0,0.7,0,1c0,0-0.3,0.3-0.3,0c-0.3,0-0.7-0.3-0.7-0.7c-1-0.7-2-1.3-3-2
		c-2-1-4-2-6-2c-0.3,0-0.7-0.3-0.3-0.7v-0.3c1.3-3,2.3-6,3.6-8.9c0.3-1,0.7-1.3,2-1c1.3,0,2.6,0.7,3.6,1.3c0.3,0.3,0.7,1,0.7,1.3
		c0,0.7,0,1.3,0,2c0,0.7,0,1.7,0,2.3C551.5,479.2,551.5,480.2,551.5,480.8L551.5,480.8z"/>
	<path class="st0" d="M539.3,484.1c0.7,0.3,1,0.3,1.3,0.3c4.3,0,7.9,2,10.2,5.6v0.3c0,0-0.3,0.3-0.3,0c-0.7-0.3-1.3-0.7-2-1
		c-2.3-1-4.3-1.7-6.9-2c-2,0-4,0-5.6,1c-0.3,0-0.7,0.3-1,0.3l-0.3-0.3c0-0.3,0-0.3,0.3-0.7c1.7-4.3,3.3-8.3,5-12.6
		c0.7-1.7,1.7-2.6,3.3-3.3h0.3l0.3,0.3c0,0.3,0,0.3,0,0.7c-0.3,0.7-0.3,1-0.7,1.7c-1,2.6-2.3,5.3-3.3,8.3
		C539.3,483.1,539.3,483.5,539.3,484.1z"/>
	<path class="st0" d="M530.7,444.8c3,1,6.3,2.3,7.3,3c0,0,0,0,0,0.3c-0.7,0.7-1.3,1.3-2,2c-0.7,0.7-1,1.7-1.7,2.3
		c-0.3,0.7-0.7,1.7-1.3,2.3c-0.3,0.7-0.7,1.7-1,2.6c-0.3-0.3-0.3-0.3-0.3-0.7c-1.3-2.3-2.3-4.6-3.6-6.9c-0.3-0.7-0.3-1.7,0-2.3
		c0.3-1,1-1.7,1.7-2.3C530,445.1,530.3,445.1,530.7,444.8z"/>
	<path class="st0" d="M530.3,458.3c-2-0.7-4.3-1-6.3-1c-1,0-2.3,0-3.3,0.3c-0.3,0-0.7-0.3-0.7-0.7c0.3-2.3,1-4.6,1.3-6.9
		c0-0.3,0.3-0.7,0.7-0.7c1-0.3,2-0.7,2.6-0.3c1,0,1.7,0.7,2.3,1.7c1,2.3,2.3,4.6,3.3,6.9C530.7,457.7,531,458,530.3,458.3z"/>
	<path class="st0" d="M540.3,447.8c0-0.3-0.3-0.7-0.7-0.7c-2.3-0.7-4.3-1.7-6.6-2.3c-0.3-0.3-1-0.3-1.3-0.7v-0.3c1-1,2-1,3-1
		c0.3,0,0.7,0.3,1,0.3c3.3,1.3,6.6,2.3,9.9,3.6c0.3,0,0.7,0.3,0.7,0.7c-0.3,0-0.7,0.3-0.7,0.3c-4.6,1.7-8.3,5-10.6,9.3
		c-0.3,0.7-0.7,1.3-1,2h-0.3c0,0,0,0,0-0.3c0.3-3.6,2.3-6.6,5-9.3C538.9,448.7,539.6,448.4,540.3,447.8z"/>
	<path class="st0" d="M519.1,459.7c0.7-0.3,1-0.3,1.7-0.7c3.3-1,6.3-1,9.3,0.3c0.3,0,0.7,0.3,0.7,0.7c-0.7,0-1.3,0-2,0
		c-2,0-3.6,0-5.3,0.3c-2.3,0.7-4.3,1.3-6,2.6c-0.3,0.3-1,0.7-1.3,1h-0.3c0,0,0,0,0-0.3c0-0.3,0.3-1,0.3-1.3c0.7-3.3,1.7-6.6,2.3-9.6
		c0.3-1.3,1-2,2.3-2.6h0.3c0,0,0,0,0,0.3c0,0.7-0.3,1.7-0.3,2.3c-0.3,2-1,4-1.3,6C518.8,459.3,518.4,459.7,519.1,459.7z"/>
	<path class="st0" d="M498.6,433.2C498.3,433.5,498.3,433.5,498.6,433.2c-2.3,1.3-4,3-5.3,4.6c-0.3,0.3-0.3,0.7-0.7,0.7h-0.3
		l-0.3-0.3c0-0.3,0-0.3,0-0.7c0-2,0-3.6-0.3-5.6c0-0.7,0.3-1.3,0.7-2c0.3-0.7,1-1.3,1.7-1.7c0.3-0.3,1-0.3,1,0
		C496.3,429.9,497.6,431.6,498.6,433.2L498.6,433.2z"/>
	<path class="st0" d="M492.7,439.8c0.3-0.3,0.3-0.3,0.7-0.7c1.7-2.3,3.6-3.6,6.3-5c0.3,0,0.7-0.3,1-0.7c-0.3-0.7-1-1.3-1.3-2
		c-1-1.3-2-2.3-3-3.6c-0.3-0.3,0-0.7,0.3-0.7c1-0.3,2-0.3,2.6,0.7c2,2,4,4.3,5.6,6.3v0.3l-0.3,0.3c0,0,0,0-0.3,0
		c-3.6,0.3-7.3,1.7-9.9,4c-0.3,0.3-0.3,0.3-0.7,0.7C493.3,439.8,493,439.8,492.7,439.8L492.7,439.8z"/>
	<path class="st0" d="M491,439.2c-0.3,0-0.3,0-0.7,0c-0.3-0.3-0.7-0.7-1.3-0.7c-1-0.7-1.7-1-2.6-1.3c-1.3-0.3-1.3-0.7-1-1.7
		c0.7-1.3,1-2.6,1.7-4.3c0.3-0.7,0.7-0.7,1.3-0.7c0.3,0,0.7,0.3,1,0.3c0.7,0.3,1,0.7,1,1.3c0,0.3,0,0.7,0,1.3
		C491,435.2,491,437.2,491,439.2z"/>
	<path class="st0" d="M488.7,440.2c-2-0.7-4-1-6-0.3c-0.3,0-0.7,0-0.7,0c0-0.3,0-0.3,0-0.7c1-2,1.7-4.3,2.6-6.3
		c0.3-0.7,0.7-1.3,1.3-1.7h0.3l0.3,0.3c0,0.3-0.3,0.7-0.3,1c-0.7,1.3-1,2.6-1.7,3.6c0,0.3-0.3,0.7-0.3,1c0,0.3,0,0.7,0.3,0.7
		c0.7,0,1.3,0,2,0.3c1.7,0.3,3,1,3.6,2.3c0,0,0,0,0,0.3c0,0,0,0-0.3,0C489.3,440.5,489,440.2,488.7,440.2z"/>
	<path class="st0" d="M492.7,439.8C492.7,439.8,493,439.8,492.7,439.8C493,440.2,492.7,440.2,492.7,439.8L492.7,439.8L492.7,439.8z"
		/>
	<path class="st0" d="M583.6,544.3C583.6,544.6,583.9,544.6,583.6,544.3C583.6,545,583.6,545,583.6,544.3
		C583.6,544.6,583.6,544.6,583.6,544.3L583.6,544.3z"/>
</g>
</svg>
