<?xml version="1.0" encoding="utf-8"?>
<!-- Generator: Adobe Illustrator 24.1.0, SVG Export Plug-In . SVG Version: 6.00 Build 0)  -->
<svg version="1.1" id="Layer_1" xmlns="http://www.w3.org/2000/svg" xmlns:xlink="http://www.w3.org/1999/xlink" x="0px" y="0px"
	 viewBox="0 0 1414 1259" style="enable-background:new 0 0 1414 1259;" xml:space="preserve">
<style type="text/css">
	.st0{fill:#2D2D2D;}
	.st1{fill:#0633A9;}
	.st2{fill-rule:evenodd;clip-rule:evenodd;fill:#0633A9;}
</style>
<g>
	<g>
		<path class="st0" d="M311.7,956h26.9c0,7.6,6.4,13.7,14.7,13.7c7.9,0,13.9-4.9,13.9-11.2c0-7.9-9.6-12.2-20.6-15
			c-16.9-4.2-33.1-14.4-33.1-36.5c0-19.8,16.9-34.6,39.2-34.6c22.8,0,39.7,15.2,39.7,35.5h-26.9c0-6.9-5.4-12.2-12.8-12.2
			c-7.1,0-12.3,4.4-12.3,10.3c0,7.4,7.8,11.5,19.1,14.5c17.7,4.7,34.6,13.4,34.6,36.3c0,20.6-17.6,36.2-41.1,36.2
			C329.5,993,311.7,977.1,311.7,956z"/>
		<path class="st0" d="M489.2,904.8V991h-24.7v-9.5c-6.3,7.6-14.9,11.5-25,11.5c-19.1,0-31.8-12.8-31.8-32.5v-55.8h24.7v48.3
			c0,9.6,6.1,16.1,15.4,16.1c10,0,16.7-6.6,16.7-16.4v-48H489.2z"/>
		<path class="st0" d="M612.9,991l-39.4-48.2V991h-26.2V874.3h26.2v47.3l38.9-47.3h32.1l-47.3,58l48.3,58.6H612.9z"/>
		<path class="st0" d="M729.1,904.8V991h-24.7v-9.5c-6.3,7.6-14.9,11.5-25,11.5c-19.1,0-31.8-12.8-31.8-32.5v-55.8h24.7v48.3
			c0,9.6,6.1,16.1,15.4,16.1c10,0,16.7-6.6,16.7-16.4v-48H729.1z"/>
		<path class="st0" d="M834.7,904.8l-48.2,118.3h-26.4l13.5-33.3l-34.5-85h28.2l19.9,54.8l19.8-54.8H834.7z"/>
		<path class="st0" d="M925,904.8V991h-24.7v-9.5c-6.3,7.6-14.9,11.5-25,11.5c-19.1,0-31.8-12.8-31.8-32.5v-55.8h24.7v48.3
			c0,9.6,6.1,16.1,15.4,16.1c10,0,16.7-6.6,16.7-16.4v-48H925z"/>
		<path class="st0" d="M939.3,964.8H964c0,4.7,4.1,8.6,9.1,8.6c4.7,0,8.5-2.9,8.5-6.6c0-5.4-6.8-7.9-13.9-9.5
			c-13-3-27.2-9.6-27.2-27.4c0-17.7,15-27.2,32.1-27.2c18.6,0,32.5,12,32.5,27h-24.7c0-4.1-3.4-7.4-7.9-7.4c-4.1,0-7.3,2.7-7.3,5.9
			c0,4.9,5.9,7.6,14.4,9.6c13,3.2,26.7,9.3,26.7,26.7c0,18.1-15,28.4-33.3,28.4C953.5,993,939.3,980.3,939.3,964.8z"/>
		<path class="st0" d="M1100.9,904.8V991h-24.7v-9.5c-6.3,7.6-14.9,11.5-25,11.5c-19.1,0-31.8-12.8-31.8-32.5v-55.8h24.7v48.3
			c0,9.6,6.1,16.1,15.4,16.1c10,0,16.7-6.6,16.7-16.4v-48H1100.9z"/>
	</g>
	<g>
		<path class="st1" d="M867.6,1016.1l-13.9,38.2h-3.6l-12-33.4l-12.1,33.4h-3.6l-13.9-38.2h3.8l12,33.9l12.2-33.9h3.3l12.2,33.9
			l11.9-33.9H867.6z"/>
		<path class="st1" d="M897.3,1026v28.3h-3.2v-6.8c-2.3,4.5-6.8,7.4-12.2,7.4c-8.2,0-14.3-6.4-14.3-14.8s6.1-14.8,14.3-14.8
			c5.4,0,9.9,2.9,12.2,7.4v-6.8H897.3z M894.1,1040.2c0-6.6-5-11.7-11.6-11.7c-6.6,0-11.6,5-11.6,11.7s5,11.7,11.6,11.7
			C889.1,1051.8,894.1,1046.8,894.1,1040.2z"/>
		<path class="st1" d="M920.4,1029h-6.9v25.3h-3.2V1029h-6.6v-2.9h6.6v-7.7l3.2-0.6v8.3h6.9V1029z"/>
		<path class="st1" d="M952.6,1041.5h-26.4c0.6,6.1,5.3,10.5,11.5,10.5c5.1,0,9.2-2.8,10.8-6.9h3.5c-2,5.9-7.5,9.9-14.3,9.9
			c-8.5,0-14.9-6.4-14.9-14.8s6.4-14.8,14.9-14.8c8.5,0,15,6.4,15,14.8C952.7,1040.5,952.7,1041.1,952.6,1041.5z M926.3,1038.6h23
			c-0.7-6-5.5-10.3-11.6-10.3C931.6,1028.3,927,1032.6,926.3,1038.6z"/>
		<path class="st1" d="M972.7,1025.6v3.3c-6.1,0-10,4.2-10,10.7v14.7h-3.2V1026h3.2v6.1C964.6,1028,968.2,1025.6,972.7,1025.6z"/>
		<path class="st1" d="M1049.7,1016.1l-13.9,38.2h-3.6l-12-33.4l-12.1,33.4h-3.6l-13.9-38.2h3.8l12,33.9l12.2-33.9h3.3l12.2,33.9
			l11.9-33.9H1049.7z"/>
		<path class="st1" d="M1079.4,1041.5H1053c0.6,6.1,5.3,10.5,11.5,10.5c5.1,0,9.2-2.8,10.8-6.9h3.5c-2,5.9-7.5,9.9-14.3,9.9
			c-8.5,0-14.9-6.4-14.9-14.8s6.4-14.8,14.9-14.8c8.5,0,15,6.4,15,14.8C1079.5,1040.5,1079.4,1041.1,1079.4,1041.5z M1053.1,1038.6
			h23c-0.7-6-5.5-10.3-11.6-10.3C1058.4,1028.3,1053.7,1032.6,1053.1,1038.6z"/>
		<path class="st1" d="M1086.3,1014.4h3.2v39.9h-3.2V1014.4z"/>
		<path class="st1" d="M1098.3,1014.4h3.2v39.9h-3.2V1014.4z"/>
	</g>
</g>
<path class="st2" d="M911.6,748.2c-107.9,107.9-284.2,107.9-392.2,0s-107.9-284.2,0-392.2l43.5-43.5L715.5,160l72.8,72.8
	l123.3,123.3c84.2,84.2,84.2,220.9,0,305.1c-7.3,7.3-15.3,14.2-23.4,20.4c-84.5,63.3-204.7,56.6-281.7-20.4
	c-59.7-59.7-59.7-158.1,0-217.8l43.2-43.2l0.8-0.8l65-65l21.8,21.8l87,87.3c36,36,36,94.6,0,130.8c-7.8,7.8-16.5,13.7-25.7,18.1
	c16.2-34.3,10.3-77.3-17.9-105.4l-61.6-61.6l-3.6-3.6l-21.8,21.8l-43.5,43.5c-35.7,35.7-35.7,94.8,0,130.8
	c52.7,52.7,133.9,59.1,193.8,19.8c8.6-5.6,16.7-12.3,24.3-19.8c60.2-60.2,60.2-157.6,0-217.8L761.5,293l-45.7-45.7L606.7,356.1
	l-43.5,43.8c-84,83.7-84,221.2,0,304.9c101,101,260.2,107.9,369.3,20.6C926.1,733.2,919.1,741,911.6,748.2L911.6,748.2z
	 M715.5,508.6l21.8,21.8c11.7,11.7,11.7,31.8,0,43.5c-11.7,11.7-31.8,11.7-43.5,0.3c0,0,0,0,0-0.3c0,0-0.3,0-0.3-0.3
	c-11.4-11.7-11.4-31.8,0.3-43.2L715.5,508.6z"/>
</svg>
